<?xml version="1.0" encoding="utf-8"?>
<!-- Generator: Adobe Illustrator 28.0.0, SVG Export Plug-In . SVG Version: 6.00 Build 0)  -->
<svg version="1.1" id="Layer_1" xmlns="http://www.w3.org/2000/svg" xmlns:xlink="http://www.w3.org/1999/xlink" x="0px" y="0px"
	 viewBox="0 0 500 500" style="enable-background:new 0 0 500 500;" xml:space="preserve">
<style type="text/css">
	.st0{fill:#FFCC00;}
	.st1{fill:#1A1A1A;}
</style>
<g>
	<path class="st0" d="M256.5,20.9l220.5,220.5c5.5,5.5,5.5,14.5,0,20L256.5,481.9c-5.5,5.5-14.5,5.5-20,0L15.9,261.5
		c-5.5-5.5-5.5-14.5,0-20L236.4,20.9C242,15.4,250.9,15.4,256.5,20.9z"/>
	<path class="st1" d="M246.4,462.8c-4.1,0-8.2-1.6-11.3-4.7L39.7,262.7c-6.2-6.2-6.2-16.3,0-22.5L235.2,44.7
		c6.2-6.2,16.3-6.2,22.5,0l195.4,195.4c6.2,6.2,6.2,16.3,0,22.5L257.7,458.1C254.6,461.3,250.5,462.8,246.4,462.8z M246.4,50.7
		c-1.4,0-2.7,0.5-3.8,1.6L47.3,247.7c-2.1,2.1-2.1,5.4,0,7.5l195.4,195.4c2.1,2.1,5.4,2.1,7.5,0l195.4-195.4c2.1-2.1,2.1-5.4,0-7.5
		L250.2,52.3C249.2,51.2,247.8,50.7,246.4,50.7z"/>
	<path d="M183.7,177.2v34.8c0,0.5,0,1.3,0.1,2.5l0,0.2c-0.1-0.2-0.2-0.3-0.3-0.5c-0.7-1.1-1.1-1.9-1.4-2.3l-24.7-34.7h-14.6v68.9
		h16.1v-35.2c0-0.6,0-1.5,0-2.5l0-0.3c0.1,0.2,0.2,0.4,0.3,0.6c0.6,1.2,1.1,2,1.5,2.4l25.3,34.9h14v-68.9H183.7z"/>
	<path d="M275,199c-1.1-4.2-2.9-8-5.3-11.5c-2.4-3.5-5.6-6.3-9.5-8.3c-3.9-2.1-8.6-3.1-14.2-3.1c-5.5,0-10.3,1.1-14.2,3.1
		c-3.9,2.1-7.1,4.9-9.5,8.3c-2.4,3.4-4.2,7.3-5.3,11.5c-1.1,4.2-1.7,8.4-1.7,12.6c0,4.2,0.6,8.5,1.7,12.6c1.1,4.2,2.9,8,5.3,11.5
		c2.4,3.5,5.6,6.3,9.5,8.3c3.9,2.1,8.7,3.1,14.2,3.1c5.6,0,10.3-1.1,14.2-3.1c3.9-2.1,7-4.9,9.5-8.3c2.4-3.4,4.2-7.3,5.3-11.5
		c1.1-4.2,1.6-8.4,1.6-12.6C276.6,207.5,276,203.2,275,199z M239.5,193.6c1.7-1.2,3.9-1.8,6.5-1.8c2.6,0,4.8,0.6,6.5,1.8
		c1.8,1.2,3.2,2.8,4.2,4.7c1.1,2,1.8,4.1,2.3,6.5c0.5,2.4,0.7,4.7,0.7,7c0,2.2-0.2,4.4-0.7,6.7c-0.5,2.3-1.3,4.5-2.4,6.5
		c-1.1,2-2.5,3.6-4.2,4.8c-1.7,1.2-3.8,1.8-6.3,1.8c-2.5,0-4.7-0.6-6.5-1.8c-1.8-1.2-3.2-2.8-4.3-4.7c-1.1-2-1.9-4.1-2.4-6.5
		c-0.5-2.3-0.7-4.6-0.7-6.9c0-2.2,0.2-4.4,0.7-6.8c0.5-2.3,1.2-4.5,2.3-6.5C236.3,196.5,237.7,194.8,239.5,193.6z"/>
	<polygon points="331.6,177.2 315.5,202.1 299.5,177.4 299.4,177.2 281,177.2 307.5,219.4 307.5,246.1 323.6,246.1 323.6,219.4 
		350.1,177.2 	"/>
	<path d="M236.9,298.6c-1.2-4.1-3.2-7.8-5.9-11.1c-2.7-3.3-6.2-5.9-10.5-7.9c-4.2-1.9-9.4-2.9-15.4-2.9h-26.3v68.9h25.9
		c6.3,0,11.7-1.1,16-3.1c4.3-2.1,7.9-4.9,10.5-8.3c2.6-3.4,4.6-7.2,5.8-11.2c1.2-4,1.8-8,1.8-11.9
		C238.8,306.8,238.2,302.6,236.9,298.6z M221.9,311.1c0,2.2-0.3,4.4-0.9,6.6c-0.6,2.2-1.5,4.3-2.7,6.1c-1.2,1.8-2.9,3.3-4.8,4.4
		c-2,1.1-4.4,1.7-7.3,1.7h-11.1v-37.8h12.1c2.5,0,4.7,0.5,6.5,1.6c1.8,1.1,3.4,2.6,4.6,4.4c1.2,1.8,2.1,3.9,2.7,6.1
		C221.6,306.5,221.9,308.8,221.9,311.1z"/>
	<path d="M314.7,318.9c-0.6-2-1.7-3.9-3.2-5.7c-1.3-1.5-2.9-2.7-4.9-3.6c2.5-1.3,4.2-3.2,5.2-5.5c1.1-2.6,1.6-5.4,1.6-8.5
		c0-3.1-0.7-6.2-2.2-9c-1.4-2.9-3.9-5.3-7.2-7.1c-3.3-1.8-7.9-2.8-13.6-2.8h-33.3v68.9h34.5c4.4,0,8.1-0.6,11.2-1.8
		c3-1.2,5.5-2.8,7.4-4.8c1.9-2,3.2-4.3,4.1-6.7c0.9-2.5,1.3-5,1.3-7.5C315.7,322.9,315.4,320.9,314.7,318.9z M298.6,326.9
		c-0.4,0.9-1.1,1.6-2.1,2.3c-1,0.6-2.4,0.9-4.1,0.9h-18.9v-12.4h16.3c2.7,0,4.7,0.3,6,1c1.3,0.7,2.2,1.5,2.7,2.5
		c0.5,1,0.7,2.1,0.7,3.1C299.2,325.1,299,326,298.6,326.9z M295.1,301.4c-1.2,1-3.3,1.5-6.1,1.5h-15.5v-11h17.1
		c1.8,0,3.2,0.3,4.1,0.8c0.9,0.5,1.5,1.2,1.7,2c0.3,0.8,0.5,1.7,0.5,2.6C296.9,299.1,296.3,300.5,295.1,301.4z"/>
</g>
</svg>
